<svg version="1.1" xmlns="http://www.w3.org/2000/svg"
      viewBox="0 0 46.2570378508708 61.826992969959974" width="46.2570378508708"
      height="61.826992969959974"><!-- svg-source:excalidraw -->
      <metadata></metadata>
      <defs>
            <style class="style-fonts">
            </style>
      </defs>
      <g stroke-linecap="round">
            <g
                  transform="translate(10.609414272010326 51.11997241526842) rotate(0 12.585200137845732 -20)"
                  fill-rule="evenodd">
                  <path d="M-0.86 -0.22 L1.39 -38.32 L25.51 -22.04 L0.57 1.17" stroke="none"
                        stroke-width="0" fill="#99e9f2" fill-rule="evenodd"></path>
                  <path
                        d="M-0.01 -1.34 C0.47 -13.35, -0.61 -21.31, 0.43 -40.03 M0.83 0.71 C0.28 -12.67, 0.11 -24.4, -0.27 -39.14 M0.81 -41.12 C9.57 -33.25, 16.46 -26.87, 23.28 -22.01 M0.37 -39.51 C9.08 -33.59, 17.09 -25.58, 25.65 -20.83 M25.53 -18.99 C17.5 -13.96, 10.52 -9.92, -0.61 -1.04 M24.83 -21.08 C17.13 -15.53, 11.89 -8.69, -0.32 0.36 M0 0 C0 0, 0 0, 0 0 M0 0 C0 0, 0 0, 0 0"
                        stroke="#0c8599" stroke-width="4" fill="none"></path>
            </g>
      </g>
</svg>